# xmcd
#
# Track frame offsets: 
#        150
#        19015
#        34880
#        56062
#        78103
#        102436
#        125729
#        153356
#        176941
#        195711
#        211514
#        229809
#        246704
#        264410
#        282948
#        307105
#
# Disc length: 4311 seconds
#
# Revision: 1
# Processed by: cddbd v1.5.2PL0 Copyright (c) Steve Scherf et al.
# Submitted via: ExactAudioCopyFreeDBPlugin 1.0
#
DISCID=e610d510
DTITLE=Jim Suhler and Monkey Beat - (2009) Tijuana Bible
DYEAR=2009
DGENRE=Blues
TTITLE0=Tijuana Bible
TTITLE1=Devil In Me
TTITLE2=Drunken Hearted Boy
TTITLE3=Up To My Neck In You
TTITLE4=Long Hot Summer
TTITLE5=Black Sky
TTITLE6=Deep Water Lullaby
TTITLE7=Years Of Tears
TTITLE8=Po' Lightnin'
TTITLE9=Border Rock
TTITLE10=Mexicali Run
TTITLE11=Sunday Drunk
TTITLE12=Chaos In Tejas
TTITLE13=Juice
TTITLE14=I Could've Had Religion
TTITLE15=Cold Light Of Day
EXTD=YEAR: 2009
EXTT0=
EXTT1=
EXTT2=
EXTT3=
EXTT4=
EXTT5=
EXTT6=
EXTT7=
EXTT8=
EXTT9=
EXTT10=
EXTT11=
EXTT12=
EXTT13=
EXTT14=
EXTT15=
PLAYORDER=
